<mxfile host="app.diagrams.net" modified="2022-04-07T07:42:17.832Z" agent="5.0 (Windows)" etag="UPC1BbPutnonYcW_8h8g" version="17.4.0" type="github">
  <diagram id="0G0ROyulJL0htk96QFd1" name="Page-1">
    <mxGraphModel dx="2591" dy="740" grid="1" gridSize="10" guides="1" tooltips="1" connect="1" arrows="1" fold="1" page="1" pageScale="1" pageWidth="1169" pageHeight="827" math="0" shadow="0">
      <root>
        <mxCell id="0" />
        <mxCell id="1" parent="0" />
        <mxCell id="8_lzRA96tVwqii9ZC3nX-1" value="HygKo" style="whiteSpace=wrap;html=1;aspect=fixed;" vertex="1" parent="1">
          <mxGeometry x="410" y="640" width="90" height="90" as="geometry" />
        </mxCell>
        <mxCell id="8_lzRA96tVwqii9ZC3nX-3" value="" style="endArrow=none;dashed=1;html=1;dashPattern=1 3;strokeWidth=2;rounded=0;" edge="1" parent="1">
          <mxGeometry width="50" height="50" relative="1" as="geometry">
            <mxPoint x="100" y="570" as="sourcePoint" />
            <mxPoint x="1020" y="570" as="targetPoint" />
          </mxGeometry>
        </mxCell>
        <mxCell id="8_lzRA96tVwqii9ZC3nX-4" value="Ausbildung" style="text;html=1;strokeColor=none;fillColor=none;align=center;verticalAlign=middle;whiteSpace=wrap;rounded=0;" vertex="1" parent="1">
          <mxGeometry x="90" y="660" width="60" height="30" as="geometry" />
        </mxCell>
        <mxCell id="8_lzRA96tVwqii9ZC3nX-5" value="Fortbildung" style="text;html=1;strokeColor=none;fillColor=none;align=center;verticalAlign=middle;whiteSpace=wrap;rounded=0;" vertex="1" parent="1">
          <mxGeometry x="90" y="190" width="60" height="30" as="geometry" />
        </mxCell>
        <mxCell id="8_lzRA96tVwqii9ZC3nX-6" value="WBK AGÖW" style="whiteSpace=wrap;html=1;aspect=fixed;" vertex="1" parent="1">
          <mxGeometry x="540" y="640" width="90" height="90" as="geometry" />
        </mxCell>
        <mxCell id="8_lzRA96tVwqii9ZC3nX-7" value="PAE" style="whiteSpace=wrap;html=1;aspect=fixed;" vertex="1" parent="1">
          <mxGeometry x="790" y="640" width="90" height="90" as="geometry" />
        </mxCell>
        <mxCell id="8_lzRA96tVwqii9ZC3nX-8" value="WBK BY" style="whiteSpace=wrap;html=1;aspect=fixed;" vertex="1" parent="1">
          <mxGeometry x="660" y="640" width="90" height="90" as="geometry" />
        </mxCell>
        <mxCell id="8_lzRA96tVwqii9ZC3nX-9" value="SMA" style="whiteSpace=wrap;html=1;aspect=fixed;" vertex="1" parent="1">
          <mxGeometry x="290" y="640" width="90" height="90" as="geometry" />
        </mxCell>
        <mxCell id="8_lzRA96tVwqii9ZC3nX-10" value="Psychiatrie Facharzt" style="whiteSpace=wrap;html=1;aspect=fixed;" vertex="1" parent="1">
          <mxGeometry x="-80" y="450" width="90" height="90" as="geometry" />
        </mxCell>
        <mxCell id="8_lzRA96tVwqii9ZC3nX-11" value="Begutachtung" style="rounded=1;whiteSpace=wrap;html=1;" vertex="1" parent="1">
          <mxGeometry x="290" y="465" width="120" height="60" as="geometry" />
        </mxCell>
        <mxCell id="8_lzRA96tVwqii9ZC3nX-12" value="&lt;div&gt;Infektions&lt;/div&gt;&lt;div&gt;epidemiologie&lt;/div&gt;" style="rounded=1;whiteSpace=wrap;html=1;" vertex="1" parent="1">
          <mxGeometry x="930" y="470" width="120" height="60" as="geometry" />
        </mxCell>
        <mxCell id="8_lzRA96tVwqii9ZC3nX-14" value="Gesundheits-berichterstattung" style="rounded=1;whiteSpace=wrap;html=1;" vertex="1" parent="1">
          <mxGeometry x="785" y="470" width="120" height="60" as="geometry" />
        </mxCell>
        <mxCell id="8_lzRA96tVwqii9ZC3nX-15" value="Kinder/Jugend Gesundheit" style="rounded=1;whiteSpace=wrap;html=1;" vertex="1" parent="1">
          <mxGeometry x="650" y="470" width="120" height="60" as="geometry" />
        </mxCell>
        <mxCell id="8_lzRA96tVwqii9ZC3nX-16" value="Psychiatrie" style="rounded=1;whiteSpace=wrap;html=1;" vertex="1" parent="1">
          <mxGeometry x="500" y="470" width="120" height="60" as="geometry" />
        </mxCell>
        <mxCell id="8_lzRA96tVwqii9ZC3nX-17" value="Master PH/Epi" style="whiteSpace=wrap;html=1;aspect=fixed;" vertex="1" parent="1">
          <mxGeometry x="910" y="640" width="90" height="90" as="geometry" />
        </mxCell>
        <mxCell id="8_lzRA96tVwqii9ZC3nX-18" value="ÖGD Grundlagen" style="rounded=1;whiteSpace=wrap;html=1;" vertex="1" parent="1">
          <mxGeometry x="120" y="465" width="120" height="60" as="geometry" />
        </mxCell>
      </root>
    </mxGraphModel>
  </diagram>
</mxfile>
